<svg width="829" height="369" viewBox="0 0 829 369" fill="none" xmlns="http://www.w3.org/2000/svg">
<path d="M544.81 124.205H576.81C580.45 124.205 589.74 127.885 593.01 130.005C615.39 144.545 616.08 190.115 593.23 204.615C591.08 205.985 582.82 210.195 580.81 210.195H545.81C545.56 210.195 545.01 211.375 544.3 210.775C541.53 208.885 544.27 193.595 544.36 189.745C544.8 170.345 544.65 149.035 544.36 129.635C544.33 127.335 542.65 125.515 544.81 124.195V124.205ZM574.81 139.205C570.49 138.535 564.82 139.695 560.31 139.205V196.205C567.37 196.255 573.8 196.885 580.37 193.775C598.53 185.155 596.57 142.605 574.81 139.205Z" fill="white"/>
<path d="M479.311 124.205V158.205H511.311V124.205H528.311V210.205H513.811C513.461 210.205 512.701 211.975 511.311 209.705V173.205H479.311V210.205C474.531 210.145 468.981 210.805 464.351 210.795C463.181 210.795 463.061 210.725 462.311 209.705V124.205H479.311Z" fill="white"/>
<path d="M784.31 210.205L778.42 191.795L747.29 191.685L740.31 210.205H724.81C724.6 210.205 723.68 211.695 723.32 211.205L753.92 124.145L771.84 125.185L802.29 209.725C800.76 212.185 800.19 210.215 799.82 210.215H784.32L784.31 210.205ZM773.31 177.205L762.81 145.195L751.31 177.205H773.31Z" fill="white"/>
<path d="M408.311 182.205V209.705L406.851 210.965L392.311 211.205V124.205H427.811C429.381 124.205 435.761 126.525 437.661 127.355C457.251 135.885 457.431 168.765 438.991 178.385C437.271 179.285 430.161 182.205 428.811 182.205H408.311ZM408.311 167.205C422.211 170.595 439.301 166.165 434.621 148.385C433.751 145.065 429.331 139.205 425.811 139.205H408.311V167.205Z" fill="white"/>
<path d="M628.311 124.205L648.321 188.205L670.811 124.205H687.311L656.871 210.875L639.201 209.615L611.311 124.205H628.311Z" fill="white"/>
<path d="M828.311 124.205H812.311V210.205H828.311V124.205Z" fill="white"/>
<path d="M159.111 0.504589C311.301 -10.6754 391.981 166.375 314.121 288.515C225.061 428.225 28.7209 372.755 2.61088 217.415C-14.3491 116.545 52.8709 8.31459 159.111 0.504589ZM99.6609 49.5546C59.5809 91.0146 87.5309 151.355 142.821 155.185C160.661 156.425 161.691 142.705 176.051 140.445C213.581 134.545 217.551 189.235 184.551 193.945C165.331 196.685 160.181 181.885 145.291 175.725C126.431 167.925 104.391 166.775 84.9309 157.085C71.1509 150.225 62.5509 136.355 45.8109 138.205C19.5509 141.105 21.9809 190.935 24.5809 209.435C30.5809 252.015 62.9709 306.265 102.261 325.755C167.081 357.905 181.921 264.525 130.111 248.905C110.711 243.055 101.471 257.425 81.3409 250.675C40.1009 236.845 59.7809 169.845 104.001 186.015C128.871 195.115 119.991 220.885 136.381 232.635C153.611 244.995 185.701 251.885 203.821 238.195C223.841 223.065 212.061 192.855 240.281 178.655C283.801 156.765 317.961 219.795 277.651 249.025C258.221 263.105 240.301 249.455 219.531 254.905C171.801 267.405 163.691 349.705 221.111 335.485C286.251 319.355 325.291 236.385 321.321 173.715C318.361 127.045 278.351 26.7146 216.301 55.6746C185.721 69.9446 195.751 103.335 171.011 112.385C137.331 124.705 113.851 82.2846 140.831 62.2046C148.801 56.2646 160.761 56.0746 166.761 47.1346C172.291 38.8846 169.951 26.5246 158.851 25.1846C139.071 22.7946 113.181 35.5946 99.6809 49.5546H99.6609Z" fill="url(#paint0_linear_2579_19)"/>
<path d="M720.311 167.205H689.311V182.205H720.311V167.205Z" fill="white"/>
<path d="M236.071 83.4645C280.051 77.0745 282.631 144.294 240.981 143.814C204.191 143.394 200.751 88.5945 236.071 83.4645Z" fill="#0AA8B6"/>
<defs>
<linearGradient id="paint0_linear_2579_19" x1="47.8105" y1="59.2046" x2="284.311" y2="306.705" gradientUnits="userSpaceOnUse">
<stop stop-color="#053E66"/>
<stop offset="1" stop-color="#4DB6BB"/>
</linearGradient>
</defs>
</svg>
